<mxfile host="app.diagrams.net" modified="2024-07-24T13:18:54.060Z" agent="Mozilla/5.0 (Windows NT 10.0; Win64; x64) AppleWebKit/537.36 (KHTML, like Gecko) Chrome/126.0.0.0 Safari/537.36 Edg/126.0.0.0" version="24.6.4" etag="NjvviH_fyOVbzs23Fiz8" type="github">
  <diagram name="Page-1" id="IQn6E6VwJ3_MwkaCUBP-">
    <mxGraphModel>
      <root>
        <mxCell id="0" />
        <mxCell id="1" parent="0" />
      </root>
    </mxGraphModel>
  </diagram>
</mxfile>
